#!OML:ASF X:\für Bonn\!DataBase\2005_08_12_Daniel\c3d\Daniel.ASF
:FULLY-SPECIFIED
:DEGREES
79
root 3.97487 16.7511 -2.86329 -169.349 -71.3797 129.035
lowerback 47.0402 0.389745 1.06773
upperback 13.851 -3.55515 -11.1404
thorax -6.92963 -2.61592 -11.0307
lowerneck 6.38073 12.2248 -11.1291
upperneck 29.5161 14.5814 0.880815
head 7.37761 5.05596 2.47935
rclavicle -3.4191e-014 4.13472e-014
rhumerus -47.1096 -4.5077 -88.8008
rradius 26.279
rwrist 26.6468
rhand -15.7033 23.8715
rfingers 7.12502
rthumb 10.4864 -5.84699
lclavicle -3.4191e-014 4.13472e-014
lhumerus -20.3866 -8.53513 77.7878
lradius 133.546
lwrist 16.7793
lhand -19.5341 -27.4584
lfingers 7.12502
lthumb 6.78962 2.4127
rfemur 21.2058 3.94427 9.60404
rtibia 39.0058
rfoot -24.3731 -5.31754
rtoes -9.24196
lfemur -78.8483 19.6264 -16.5904
ltibia 93.9256
lfoot 28.7156 -5.4848
ltoes -26.6822
80
root 3.99299 16.7203 -2.86642 -168.411 -71.7056 128.923
lowerback 46.2971 0.239603 1.02961
upperback 13.7418 -3.6285 -10.9997
thorax -6.86472 -2.62949 -10.8214
lowerneck 6.37717 12.2378 -11.2424
upperneck 29.4264 14.6105 0.834377
head 7.34382 5.06297 2.47845
rclavicle 2.18663e-014 3.81667e-014
rhumerus -47.8427 -4.53535 -88.3731
rradius 25.4651
rwrist 29.2639
rhand -15.9306 23.8132
rfingers 7.12502
rthumb 10.2671 -5.9162
lclavicle 2.18663e-014 3.81667e-014
lhumerus -20.1186 -8.41796 77.8513
lradius 133.365
lwrist 16.562
lhand -19.0641 -27.489
lfingers 7.12502
lthumb 7.24332 2.36702
rfemur 19.7654 3.60127 9.69489
rtibia 40.1645
rfoot -24.8899 -5.32751
rtoes -9.14054
lfemur -78.4088 19.6769 -17.3957
ltibia 97.2106
lfoot 29.2473 -5.08234
ltoes -26.8225
81
root 4.01153 16.6923 -2.87074 -167.743 -72.0736 129.206
lowerback 45.4109 0.0646078 1.09207
upperback 13.6112 -3.66438 -10.8124
thorax -6.77373 -2.61947 -10.634
lowerneck 6.3541 12.2473 -11.3881
upperneck 29.3508 14.629 0.838796
head 7.31154 5.0653 2.49988
rclavicle -1.11319e-014 4.77083e-015
rhumerus -48.5996 -4.61371 -87.8772
rradius 24.7158
rwrist 31.5751
rhand -15.9369 23.7994
rfingers 7.12502
rthumb 10.261 -5.9303
lclavicle -1.11319e-014 4.77083e-015
lhumerus -19.8607 -8.39079 77.8175
lradius 133.191
lwrist 16.3914
lhand -18.6582 -27.5174
lfingers 7.12502
lthumb 7.63506 2.32477
rfemur 18.2541 3.25444 9.96234
rtibia 41.2212
rfoot -25.3376 -5.40477
rtoes -9.02997
lfemur -77.8511 19.7286 -17.9979
ltibia 100.27
lfoot 29.5819 -4.43879
ltoes -24.7034
82
root 4.03279 16.6705 -2.87543 -167.187 -72.4866 129.671
lowerback 44.4303 -0.144677 1.22269
upperback 13.4738 -3.70522 -10.6128
thorax -6.66013 -2.60841 -10.471
lowerneck 6.31857 12.2531 -11.4995
upperneck 29.2726 14.6524 0.810978
head 7.28535 5.0709 2.507
rclavicle 8.74653e-015 -5.80451e-014
rhumerus -49.3856 -4.57143 -87.4318
rradius 24.0509
rwrist 33.3636
rhand -15.7588 23.8404
rfingers 7.12502
rthumb 10.4329 -5.88072
lclavicle 8.74653e-015 -5.80451e-014
lhumerus -19.6186 -8.43992 77.7075
lradius 133.046
lwrist 16.2513
lhand -18.4236 -27.5132
lfingers 7.12502
lthumb 7.86148 2.32065
rfemur 16.7564 2.88837 10.3274
rtibia 42.1155
rfoot -25.6988 -5.52517
rtoes -8.92681
lfemur -77.1378 19.7455 -18.4213
ltibia 103.141
lfoot 29.5713 -3.62043
ltoes -21.4455
83
root 4.05542 16.6569 -2.88208 -166.789 -72.9419 130.316
lowerback 43.3978 -0.358533 1.41832
upperback 13.3353 -3.7219 -10.3861
thorax -6.51911 -2.58336 -10.3273
lowerneck 6.29326 12.2437 -11.594
upperneck 29.1873 14.6527 0.79397
head 7.25609 5.06938 2.51411
rclavicle -1.07344e-014 1.43125e-014
rhumerus -50.1551 -4.60797 -86.9483
rradius 23.4417
rwrist 34.6955
rhand -15.2956 23.8977
rfingers 7.12502
rthumb 10.8796 -5.80045
lclavicle -1.07344e-014 1.43125e-014
lhumerus -19.3212 -8.58399 77.54
lradius 132.874
lwrist 16.0839
lhand -18.3467 -27.4662
lfingers 7.12502
lthumb 7.93568 2.36486
rfemur 15.3476 2.52965 10.7911
rtibia 42.8118
rfoot -25.9839 -5.68284
rtoes -8.68511
lfemur -76.2135 19.7228 -18.6624
ltibia 105.802
lfoot 29.2243 -2.80853
ltoes -19.1137
84
root 4.07813 16.6552 -2.88931 -166.484 -73.411 131.079
lowerback 42.3023 -0.582743 1.64174
upperback 13.1895 -3.74185 -10.1437
thorax -6.35764 -2.55859 -10.1841
lowerneck 6.29717 12.2491 -11.7098
upperneck 29.0761 14.6658 0.778789
head 7.21133 5.07399 2.52196
rclavicle -2.72335e-014 3.97569e-015
rhumerus -50.9042 -4.53169 -86.5313
rradius 22.9443
rwrist 35.4848
rhand -14.5111 23.8281
rfingers 7.12502
rthumb 11.6362 -5.82878
lclavicle -2.72335e-014 3.97569e-015
lhumerus -19.0323 -8.77019 77.3375
lradius 132.674
lwrist 15.7879
lhand -18.3209 -27.487
lfingers 7.12502
lthumb 7.9606 2.34309
rfemur 14.0247 2.1389 11.2721
rtibia 43.2971
rfoot -26.1594 -5.85349
rtoes -8.52539
lfemur -75.0392 19.6561 -18.803
ltibia 108.184
lfoot 28.7728 -2.19948
ltoes -17.7661
85
root 4.09874 16.6603 -2.89743 -166.244 -73.9107 131.871
lowerback 41.2062 -0.813182 1.88945
upperback 13.0499 -3.76917 -9.88568
thorax -6.17783 -2.53732 -10.0376
lowerneck 6.32964 12.2562 -11.8486
upperneck 28.9327 14.6779 0.74726
head 7.15153 5.07715 2.5249
rclavicle -8.54774e-014 -5.80451e-014
rhumerus -51.6052 -4.38866 -86.1527
rradius 22.5584
rwrist 36.0935
rhand -13.4494 23.5327
rfingers 7.12502
rthumb 12.66 -6.06356
lclavicle -8.54774e-014 -5.80451e-014
lhumerus -18.6999 -9.0063 77.1135
lradius 132.43
lwrist 15.401
lhand -18.3703 -27.4772
lfingers 7.12502
lthumb 7.91293 2.35469
rfemur 12.8441 1.761 11.7868
rtibia 43.6149
rfoot -26.2882 -6.0678
rtoes -8.425
lfemur -73.5218 19.4808 -18.8435
ltibia 110.224
lfoot 28.5673 -1.68349
ltoes -16.524
86
root 4.11701 16.6665 -2.9051 -166.138 -74.4745 132.741
lowerback 40.1739 -1.07625 2.20735
upperback 12.9025 -3.8242 -9.62969
thorax -6.02379 -2.5287 -9.92202
lowerneck 6.39656 12.2683 -11.9498
upperneck 28.7958 14.6871 0.726676
head 7.08991 5.08294 2.52379
rclavicle -1.53064e-014 2.70347e-014
rhumerus -52.3193 -4.2699 -85.771
rradius 22.2388
rwrist 36.762
rhand -12.3322 23.1638
rfingers 7.12502
rthumb 13.7368 -6.36276
lclavicle -1.53064e-014 2.70347e-014
lhumerus -18.4141 -9.3045 76.8186
lradius 132.181
lwrist 15.0331
lhand -18.4382 -27.5452
lfingers 7.12502
lthumb 7.84738 2.28919
rfemur 11.8084 1.36604 12.3458
rtibia 43.8063
rfoot -26.3822 -6.28395
rtoes -8.22783
lfemur -71.7151 19.1731 -18.7669
ltibia 111.894
lfoot 28.6342 -1.35063
ltoes -15.1942
87
root 4.12969 16.6689 -2.91246 -166.143 -75.0445 133.733
lowerback 38.9759 -1.33217 2.55785
upperback 12.8744 -3.86764 -9.37806
thorax -5.8199 -2.51703 -9.80368
lowerneck 6.47917 12.2863 -12.1015
upperneck 28.6263 14.6979 0.714866
head 7.01101 5.0882 2.53035
rclavicle 1.53064e-014 -4.45278e-014
rhumerus -52.9506 -4.15906 -85.3569
rradius 21.9114
rwrist 37.3664
rhand -11.305 22.8985
rfingers 7.12502
rthumb 14.7267 -6.55844
lclavicle 1.53064e-014 -4.45278e-014
lhumerus -18.0891 -9.59595 76.4876
lradius 131.948
lwrist 14.63
lhand -18.5502 -27.4965
lfingers 7.12502
lthumb 7.73933 2.34189
rfemur 10.787 0.973286 12.9275
rtibia 43.9534
rfoot -26.4714 -6.50583
rtoes -8.12286
lfemur -69.791 18.8162 -18.621
ltibia 113.28
lfoot 28.8367 -1.15269
ltoes -14.1898
88
root 4.14025 16.6771 -2.92075 -166.292 -75.616 134.872
lowerback 37.8583 -1.58237 2.90878
upperback 12.7313 -3.91773 -9.10315
thorax -5.61332 -2.50519 -9.69945
lowerneck 6.62034 12.3138 -12.2215
upperneck 28.4247 14.713 0.677789
head 6.91641 5.099 2.51943
rclavicle 3.06128e-014 2.54444e-014
rhumerus -53.547 -4.10806 -84.8801
rradius 21.549
rwrist 37.9976
rhand -10.6271 22.9331
rfingers 7.12502
rthumb 15.3796 -6.47489
lclavicle 3.06128e-014 2.54444e-014
lhumerus -17.7882 -9.85709 76.0837
lradius 131.785
lwrist 14.3613
lhand -18.5507 -27.2785
lfingers 7.12502
lthumb 7.73885 2.55986
rfemur 9.7912 0.610624 13.5456
rtibia 44.0574
rfoot -26.5506 -6.73012
rtoes -7.96277
lfemur -67.6678 18.3596 -18.3887
ltibia 114.302
lfoot 28.953 -1.04778
ltoes -14.1227
89
root 4.14957 16.679 -2.92814 -166.392 -76.2369 135.929
lowerback 36.7909 -1.84633 3.24424
upperback 12.5752 -4.00471 -8.81734
thorax -5.43032 -2.51264 -9.56313
lowerneck 6.7684 12.3532 -12.3494
upperneck 28.2203 14.7421 0.63594
head 6.8195 5.11545 2.50754
rclavicle 5.66536e-014 4.29375e-014
rhumerus -54.1042 -4.02391 -84.3965
rradius 21.2094
rwrist 38.532
rhand -10.1856 23.0789
rfingers 7.12502
rthumb 15.8049 -6.29595
lclavicle 5.66536e-014 4.29375e-014
lhumerus -17.5082 -10.0927 75.6843
lradius 131.618
lwrist 14.2856
lhand -18.5083 -27.1094
lfingers 7.12502
lthumb 7.77978 2.72749
rfemur 8.83722 0.221469 14.1546
rtibia 44.1551
rfoot -26.652 -6.9767
rtoes -7.77881
lfemur -65.5153 17.7293 -18.158
ltibia 114.964
lfoot 29.2129 -1.09798
ltoes -14.9819
90
root 4.15918 16.6834 -2.9361 -166.582 -76.8592 137.056
lowerback 35.7631 -2.09981 3.58691
upperback 12.4045 -4.09157 -8.53612
thorax -5.26693 -2.52107 -9.43919
lowerneck 6.93919 12.3994 -12.4736
upperneck 28.0155 14.7686 0.626775
head 6.7163 5.13396 2.50367
rclavicle 1.59028e-015 3.4191e-014
rhumerus -54.5955 -4.02776 -83.8558
rradius 20.8296
rwrist 39.1121
rhand -9.86325 23.1813
rfingers 7.12502
rthumb 16.1153 -6.1687
lclavicle 1.59028e-015 3.4191e-014
lhumerus -17.2061 -10.3539 75.2473
lradius 131.44
lwrist 14.3999
lhand -18.3846 -26.91
lfingers 7.12502
lthumb 7.89911 2.92244
rfemur 7.9143 -0.14426 14.7754
rtibia 44.2131
rfoot -26.7126 -7.23739
rtoes -7.60313
lfemur -63.2785 16.9676 -17.8994
ltibia 115.254
lfoot 29.6535 -1.30264
ltoes -15.8471
